<svg width="134" height="20" fill="none" xmlns="http://www.w3.org/2000/svg"><path d="M2 0h57a2 2 0 012 2v16a2 2 0 01-2 2H2a2 2 0 01-2-2V2a2 2 0 012-2z" fill="#555"/><path d="M132 0H60a2 2 0 00-2 2v16a2 2 0 002 2h72a2 2 0 002-2V2a2 2 0 00-2-2z" fill="#0099DE"/><path d="M132 0H58v20h74V0z" fill="#0099DE"/><path d="M132 0H2a2 2 0 00-2 2v16a2 2 0 002 2h130a2 2 0 002-2V2a2 2 0 00-2-2z" fill="url(#paint0_linear)"/><path d="M10.084 11.955c0 .5-.072.952-.215 1.353-.14.401-.33.738-.57 1.01a2.642 2.642 0 01-.838.639c-.304.14-.639.21-1.004.21a2.9 2.9 0 01-.892-.124 4.03 4.03 0 01-.752-.322L5.75 15h-.945V6.643h1.01v2.986a4.15 4.15 0 01.902-.57c.319-.15.677-.225 1.074-.225.709 0 1.268.272 1.676.816.412.545.618 1.313.618 2.305zm-1.043.026c0-.716-.118-1.258-.354-1.627-.236-.372-.618-.559-1.144-.559-.294 0-.59.065-.892.194-.3.125-.58.288-.838.488v3.438c.287.129.532.219.736.269.208.05.443.075.704.075.559 0 .995-.183 1.31-.548.32-.369.478-.945.478-1.73zM16.63 15h-1.009v-.666c-.34.268-.666.474-.977.618a2.44 2.44 0 01-1.032.214c-.63 0-1.12-.191-1.471-.574-.351-.387-.527-.953-.527-1.697V9h1.01v3.416c0 .305.014.566.043.785.029.214.09.399.183.553a.866.866 0 00.376.344c.154.071.377.107.671.107.261 0 .546-.068.854-.204.312-.136.601-.31.87-.521V9h1.01v6zM19.703 7.996h-1.139V6.95h1.14v1.047zM19.64 15h-1.01V9h1.01v6zM22.657 15h-1.01V6.643h1.01V15zM27.77 14.946a5.485 5.485 0 01-1.219.172c-.612 0-1.077-.165-1.396-.494-.319-.33-.478-.858-.478-1.584V9.85h-.682V9h.682V7.276h1.01V9h2.083v.85h-2.084v2.733c0 .315.008.562.022.741.014.176.065.34.15.494a.744.744 0 00.323.317c.14.065.35.097.633.097.165 0 .337-.023.516-.07a3.95 3.95 0 00.387-.123h.053v.907zM40.409 9l-1.563 6h-.935l-1.541-4.624L34.839 15h-.93l-1.578-6h1.052l1.101 4.646L35.983 9h.832l1.537 4.646L39.394 9h1.015zM42.95 7.996h-1.14V6.95h1.14v1.047zM42.884 15h-1.01V9h1.01v6zM47.998 14.946a5.476 5.476 0 01-1.22.172c-.611 0-1.077-.165-1.396-.494-.318-.33-.478-.858-.478-1.584V9.85h-.682V9h.682V7.276h1.01V9h2.084v.85h-2.084v2.733c0 .315.007.562.021.741.015.176.065.34.15.494a.744.744 0 00.323.317c.14.065.351.097.634.097.165 0 .337-.023.516-.07.179-.05.308-.091.386-.123h.054v.907zM54.24 15h-1.01v-3.416c0-.276-.017-.534-.049-.774-.032-.243-.091-.433-.177-.569a.802.802 0 00-.387-.333c-.168-.075-.386-.113-.655-.113-.276 0-.564.068-.865.205-.3.136-.589.31-.865.52V15h-1.01V6.643h1.01v3.023c.316-.26.641-.465.978-.612.337-.147.682-.22 1.037-.22.648 0 1.142.195 1.482.585.34.39.51.953.51 1.687V15zM85.506 15h-1.01v-3.416c0-.258-.012-.507-.037-.747a1.545 1.545 0 00-.145-.574.814.814 0 00-.355-.35c-.154-.078-.376-.118-.666-.118-.283 0-.566.072-.849.215-.282.14-.565.319-.848.537a4.585 4.585 0 01.037.613V15h-1.01v-3.416c0-.265-.012-.516-.037-.752a1.543 1.543 0 00-.145-.575.784.784 0 00-.355-.343c-.153-.08-.376-.119-.666-.119-.275 0-.553.068-.832.205-.276.136-.551.31-.827.52V15h-1.01V9h1.01v.666a4.47 4.47 0 01.94-.612 2.35 2.35 0 011.004-.22c.408 0 .754.086 1.037.258.286.172.5.41.639.714.408-.344.78-.59 1.117-.741a2.565 2.565 0 011.08-.231c.659 0 1.144.2 1.455.602.315.397.473.954.473 1.67V15zM92.316 15h-1.01v-.628c-.29.25-.592.445-.907.585-.315.14-.657.21-1.026.21-.716 0-1.285-.276-1.708-.828-.419-.551-.628-1.316-.628-2.293 0-.509.071-.961.214-1.359.147-.397.344-.736.591-1.015a2.483 2.483 0 011.859-.838c.315 0 .594.034.838.102.243.064.5.167.768.306v-2.6h1.01V15zm-1.01-1.477V10.08a3.789 3.789 0 00-.73-.252 3.324 3.324 0 00-.703-.07c-.566 0-1.007.197-1.322.59-.315.394-.472.953-.472 1.676 0 .713.121 1.256.365 1.628.243.369.634.553 1.17.553.287 0 .577-.063.87-.188.294-.129.568-.293.823-.494zM100.346 7.92c.326.359.575.798.747 1.317.175.519.263 1.108.263 1.767 0 .659-.09 1.25-.269 1.772-.175.52-.422.953-.741 1.3-.329.362-.72.634-1.17.817-.448.182-.96.273-1.537.273a4.074 4.074 0 01-1.536-.279 3.174 3.174 0 01-1.17-.81 3.67 3.67 0 01-.748-1.306c-.171-.516-.257-1.105-.257-1.767 0-.652.086-1.235.258-1.751.171-.52.422-.963.751-1.332.316-.351.706-.62 1.171-.806.47-.186.98-.28 1.531-.28a3.97 3.97 0 011.542.286c.458.186.847.453 1.165.8zm-.096 3.084c0-1.039-.233-1.839-.699-2.401-.465-.566-1.1-.849-1.907-.849-.812 0-1.452.283-1.917.849-.462.562-.693 1.362-.693 2.4 0 1.05.236 1.854.71 2.412.472.556 1.106.833 1.9.833.795 0 1.427-.277 1.896-.832.473-.56.71-1.363.71-2.412zM108.242 11.955c0 .5-.072.952-.215 1.353-.14.401-.33.738-.569 1.01a2.655 2.655 0 01-.838.639c-.305.14-.64.21-1.005.21-.34 0-.637-.042-.891-.124a4.007 4.007 0 01-.752-.322l-.065.279h-.945V6.643h1.01v2.986c.283-.233.583-.423.902-.57.319-.15.677-.225 1.074-.225.709 0 1.268.272 1.676.816.412.545.618 1.313.618 2.305zm-1.042.026c0-.716-.118-1.258-.355-1.627-.236-.372-.617-.559-1.144-.559-.293 0-.591.065-.891.194a3.618 3.618 0 00-.838.488v3.438c.286.129.531.219.736.269.207.05.442.075.703.075.559 0 .996-.183 1.311-.548.318-.369.478-.945.478-1.73zM111.685 7.996h-1.139V6.95h1.139v1.047zm-.065 7.149c0 .702-.179 1.232-.537 1.59-.358.358-.838.537-1.439.537-.144 0-.333-.014-.57-.043a4.199 4.199 0 01-.585-.107v-.962h.053c.101.04.235.084.403.134.172.05.339.076.5.076.258 0 .465-.036.623-.108a.74.74 0 00.354-.322c.079-.143.129-.317.151-.521.025-.2.037-.446.037-.736V9.85h-1.251V9h2.261v6.145zM118.629 12.105h-4.42c0 .369.055.691.166.967.111.272.264.496.457.671.186.172.406.3.661.387.257.086.54.129.848.129.409 0 .819-.08 1.23-.242.416-.165.711-.326.887-.483h.053v1.1c-.34.144-.687.264-1.042.36a4.225 4.225 0 01-1.117.146c-.995 0-1.772-.269-2.331-.806-.559-.54-.838-1.307-.838-2.299 0-.981.267-1.76.8-2.336.538-.577 1.243-.865 2.117-.865.809 0 1.432.236 1.869.709.44.473.66 1.144.66 2.014v.548zm-.983-.774c-.003-.53-.137-.94-.402-1.23-.262-.29-.661-.435-1.198-.435-.541 0-.972.16-1.295.479a1.866 1.866 0 00-.542 1.187h3.437zM124.597 14.624a6.45 6.45 0 01-.962.376c-.301.09-.621.134-.961.134-.433 0-.831-.062-1.193-.188a2.47 2.47 0 01-.929-.58 2.607 2.607 0 01-.607-.977c-.143-.394-.215-.854-.215-1.38 0-.982.269-1.752.806-2.31.541-.559 1.253-.838 2.138-.838.344 0 .68.048 1.01.145.333.097.637.215.913.354v1.123h-.054a3.833 3.833 0 00-.956-.553 2.59 2.59 0 00-.956-.194c-.573 0-1.026.194-1.359.58-.329.383-.494.947-.494 1.692 0 .724.161 1.28.483 1.67.326.387.783.58 1.37.58a2.724 2.724 0 001.192-.29 4.157 4.157 0 00.72-.457h.054v1.113zM129.012 14.946a5.516 5.516 0 01-1.22.172c-.612 0-1.077-.165-1.396-.494-.319-.33-.478-.858-.478-1.584V9.85h-.682V9h.682V7.276h1.01V9h2.084v.85h-2.084v2.733c0 .315.007.562.021.741.015.176.065.34.151.494a.74.74 0 00.322.317c.14.065.351.097.634.097.164 0 .336-.023.515-.07a3.98 3.98 0 00.387-.123h.054v.907zM73.27 5.76l-1.407-1.202C71.435 4.215 70.924 4 70.37 4a2.62 2.62 0 00-2.048.988l-6.612 7.644c-.981 1.117-.938 2.748.085 3.607l1.408 1.203c.427.343.938.558 1.493.558a2.62 2.62 0 002.047-.988l6.57-7.644c.47-.515.725-1.202.682-1.89a2.06 2.06 0 00-.725-1.717zm-7.124 10.737c-.383.43-.895.687-1.407.687a1.4 1.4 0 01-.939-.344l-1.407-1.245c-.64-.558-.64-1.675 0-2.405l3.242-3.779 3.753 3.307-3.242 3.779z" fill="#010101" fill-opacity=".3"/><path d="M62.648 13.448c-.34.644-.384 1.288-.085 1.804l.768-.387c-.17-.386-.043-.773.085-1.03.214-.43.64-.816 1.152-1.074l-.384-.773c-.682.386-1.237.859-1.536 1.46z" fill="#010101" fill-opacity=".3"/><path d="M10.084 10.955c0 .5-.072.952-.215 1.353-.14.401-.33.738-.57 1.01a2.642 2.642 0 01-.838.639c-.304.14-.639.21-1.004.21a2.9 2.9 0 01-.892-.124 4.03 4.03 0 01-.752-.322L5.75 14h-.945V5.643h1.01v2.986a4.15 4.15 0 01.902-.57c.319-.15.677-.225 1.074-.225.709 0 1.268.272 1.676.816.412.545.618 1.313.618 2.305zm-1.043.026c0-.716-.118-1.258-.354-1.627-.236-.372-.618-.559-1.144-.559-.294 0-.59.065-.892.194-.3.125-.58.288-.838.489v3.437c.287.129.532.219.736.269.208.05.443.075.704.075.559 0 .995-.183 1.31-.548.32-.369.478-.945.478-1.73zM16.63 14h-1.009v-.666c-.34.268-.666.474-.977.618a2.44 2.44 0 01-1.032.214c-.63 0-1.12-.191-1.471-.574-.351-.387-.527-.953-.527-1.697V8h1.01v3.416c0 .305.014.566.043.785.029.214.09.399.183.553a.866.866 0 00.376.344c.154.071.377.107.671.107.261 0 .546-.068.854-.204.312-.136.601-.31.87-.521V8h1.01v6zM19.703 6.996h-1.139V5.95h1.14v1.047zM19.64 14h-1.01V8h1.01v6zM22.657 14h-1.01V5.643h1.01V14zM27.77 13.946a5.485 5.485 0 01-1.219.172c-.612 0-1.077-.165-1.396-.494-.319-.33-.478-.858-.478-1.584V8.85h-.682V8h.682V6.276h1.01V8h2.083v.85h-2.084v2.733c0 .315.008.562.022.741.014.176.065.34.15.494a.744.744 0 00.323.317c.14.065.35.097.633.097.165 0 .337-.023.516-.07a3.95 3.95 0 00.387-.123h.053v.907zM40.409 8l-1.563 6h-.935L36.37 9.375 34.839 14h-.93l-1.578-6h1.052l1.101 4.646L35.983 8h.832l1.537 4.646L39.394 8h1.015zM42.95 6.996h-1.14V5.95h1.14v1.047zM42.884 14h-1.01V8h1.01v6zM47.998 13.946a5.476 5.476 0 01-1.22.172c-.611 0-1.077-.165-1.396-.494-.318-.33-.478-.858-.478-1.584V8.85h-.682V8h.682V6.276h1.01V8h2.084v.85h-2.084v2.733c0 .315.007.562.021.741.015.176.065.34.15.494a.744.744 0 00.323.317c.14.065.351.097.634.097.165 0 .337-.023.516-.07.179-.05.308-.091.386-.123h.054v.907zM54.24 14h-1.01v-3.416c0-.276-.017-.534-.049-.773-.032-.244-.091-.434-.177-.57a.802.802 0 00-.387-.333c-.168-.075-.386-.113-.655-.113-.276 0-.564.068-.865.205-.3.136-.589.31-.865.52V14h-1.01V5.643h1.01v3.023c.316-.26.641-.465.978-.612.337-.147.682-.22 1.037-.22.648 0 1.142.195 1.482.585.34.39.51.953.51 1.687V14zM85.506 14h-1.01v-3.416c0-.258-.012-.507-.037-.747a1.545 1.545 0 00-.145-.574.814.814 0 00-.355-.35c-.154-.078-.376-.118-.666-.118-.283 0-.566.072-.849.215-.282.14-.565.319-.848.537a4.59 4.59 0 01.037.613V14h-1.01v-3.416a7.13 7.13 0 00-.037-.752 1.543 1.543 0 00-.145-.575.783.783 0 00-.355-.343c-.153-.08-.376-.119-.666-.119-.275 0-.553.068-.832.205-.276.136-.551.31-.827.52V14h-1.01V8h1.01v.666a4.47 4.47 0 01.94-.612 2.35 2.35 0 011.004-.22c.408 0 .754.086 1.037.258.286.172.5.41.639.714.408-.344.78-.59 1.117-.741a2.565 2.565 0 011.08-.231c.659 0 1.144.2 1.455.602.315.397.473.954.473 1.67V14zM92.316 14h-1.01v-.628c-.29.25-.592.445-.907.585-.315.14-.657.21-1.026.21-.716 0-1.285-.276-1.708-.828-.419-.551-.628-1.316-.628-2.293 0-.509.071-.961.214-1.359a3.17 3.17 0 01.591-1.015 2.483 2.483 0 011.859-.838c.315 0 .594.034.838.102.243.064.5.167.768.306v-2.6h1.01V14zm-1.01-1.477V9.08a3.79 3.79 0 00-.73-.252 3.324 3.324 0 00-.703-.07c-.566 0-1.007.197-1.322.59-.315.395-.472.953-.472 1.676 0 .713.121 1.256.365 1.628.243.369.634.553 1.17.553.287 0 .577-.063.87-.188.294-.129.568-.293.823-.494zM100.346 6.92c.326.359.575.798.747 1.317.175.519.263 1.108.263 1.767 0 .659-.09 1.25-.269 1.772-.175.52-.422.953-.741 1.3-.329.362-.72.634-1.17.817-.448.182-.96.273-1.537.273a4.074 4.074 0 01-1.536-.279 3.174 3.174 0 01-1.17-.81 3.67 3.67 0 01-.748-1.306c-.171-.516-.257-1.105-.257-1.767 0-.652.086-1.235.258-1.751.171-.52.422-.963.751-1.332.316-.351.706-.62 1.171-.806.47-.186.98-.28 1.531-.28a3.97 3.97 0 011.542.286c.458.186.847.453 1.165.8zm-.096 3.084c0-1.039-.233-1.839-.699-2.401-.465-.566-1.1-.849-1.907-.849-.812 0-1.452.283-1.917.849-.462.562-.693 1.362-.693 2.4 0 1.05.236 1.854.71 2.412.472.556 1.106.833 1.9.833.795 0 1.427-.277 1.896-.832.473-.56.71-1.363.71-2.412zM108.242 10.955c0 .5-.072.952-.215 1.353-.14.401-.33.738-.569 1.01a2.655 2.655 0 01-.838.639c-.305.14-.64.21-1.005.21-.34 0-.637-.042-.891-.124a4.007 4.007 0 01-.752-.322l-.065.279h-.945V5.643h1.01v2.986c.283-.233.583-.423.902-.57.319-.15.677-.225 1.074-.225.709 0 1.268.272 1.676.816.412.545.618 1.313.618 2.305zm-1.042.026c0-.716-.118-1.258-.355-1.627-.236-.372-.617-.559-1.144-.559-.293 0-.591.065-.891.194a3.617 3.617 0 00-.838.489v3.437c.286.129.531.219.736.269.207.05.442.075.703.075.559 0 .996-.183 1.311-.548.318-.369.478-.945.478-1.73zM111.685 6.996h-1.139V5.95h1.139v1.047zm-.065 7.149c0 .702-.179 1.232-.537 1.59-.358.358-.838.537-1.439.537-.144 0-.333-.014-.57-.043a4.199 4.199 0 01-.585-.107v-.962h.053c.101.04.235.084.403.134.172.05.339.076.5.076.258 0 .465-.036.623-.108a.74.74 0 00.354-.322c.079-.143.129-.317.151-.521.025-.2.037-.446.037-.736V8.85h-1.251V8h2.261v6.145zM118.629 11.105h-4.42c0 .369.055.691.166.967.111.272.264.496.457.671.186.172.406.3.661.387.257.086.54.129.848.129.409 0 .819-.08 1.23-.242.416-.165.711-.326.887-.483h.053v1.1c-.34.144-.687.264-1.042.36a4.225 4.225 0 01-1.117.146c-.995 0-1.772-.269-2.331-.806-.559-.54-.838-1.307-.838-2.299 0-.981.267-1.76.8-2.336.538-.577 1.243-.865 2.117-.865.809 0 1.432.236 1.869.709.44.473.66 1.144.66 2.014v.548zm-.983-.774c-.003-.53-.137-.94-.402-1.23-.262-.29-.661-.435-1.198-.435-.541 0-.972.16-1.295.479a1.866 1.866 0 00-.542 1.187h3.437zM124.597 13.624a6.45 6.45 0 01-.962.376c-.301.09-.621.134-.961.134-.433 0-.831-.062-1.193-.188a2.47 2.47 0 01-.929-.58 2.607 2.607 0 01-.607-.977c-.143-.394-.215-.854-.215-1.38 0-.982.269-1.752.806-2.31.541-.559 1.253-.838 2.138-.838.344 0 .68.048 1.01.145.333.097.637.215.913.354v1.123h-.054a3.832 3.832 0 00-.956-.553 2.59 2.59 0 00-.956-.194c-.573 0-1.026.194-1.359.58-.329.384-.494.947-.494 1.692 0 .724.161 1.28.483 1.67.326.387.783.58 1.37.58a2.724 2.724 0 001.192-.29 4.157 4.157 0 00.72-.457h.054v1.113zM129.012 13.946a5.516 5.516 0 01-1.22.172c-.612 0-1.077-.165-1.396-.494-.319-.33-.478-.858-.478-1.584V8.85h-.682V8h.682V6.276h1.01V8h2.084v.85h-2.084v2.733c0 .315.007.562.021.741.015.176.065.34.151.494a.74.74 0 00.322.317c.14.065.351.097.634.097.164 0 .336-.023.515-.07a3.98 3.98 0 00.387-.123h.054v.907zM73.27 4.76l-1.407-1.202C71.435 3.215 70.924 3 70.37 3a2.62 2.62 0 00-2.048.988l-6.612 7.644c-.981 1.117-.938 2.748.085 3.607l1.408 1.203c.427.343.938.558 1.493.558a2.62 2.62 0 002.047-.988l6.57-7.644c.47-.515.725-1.202.682-1.89a2.06 2.06 0 00-.725-1.717zm-7.124 10.737c-.383.43-.895.687-1.407.687a1.4 1.4 0 01-.939-.344l-1.407-1.245c-.64-.558-.64-1.675 0-2.405l3.242-3.779 3.753 3.307-3.242 3.779z" fill="#fff"/><path d="M62.648 12.448c-.34.644-.384 1.288-.085 1.804l.768-.387c-.17-.386-.043-.773.085-1.03.214-.43.64-.816 1.152-1.074l-.384-.773c-.682.386-1.237.859-1.536 1.46z" fill="#fff"/><defs><linearGradient id="paint0_linear" x1="0" y1="0" x2="0" y2="20" gradientUnits="userSpaceOnUse"><stop stop-color="#BBB" stop-opacity=".1"/><stop offset="1" stop-opacity=".1"/></linearGradient></defs></svg>